<svg width="25" height="25" viewBox="0 0 25 25" fill="none" xmlns="http://www.w3.org/2000/svg">
<path d="M21.8 2.08002H3.7953C2.9703 2.08002 2.29999 2.7597 2.29999 3.59408V21.566C2.29999 22.4003 2.9703 23.08 3.7953 23.08H21.8C22.625 23.08 23.3 22.4003 23.3 21.566V3.59408C23.3 2.7597 22.625 2.08002 21.8 2.08002ZM8.64686 20.08H5.53436V10.0581H8.65155V20.08H8.64686ZM7.09061 8.68939C6.09218 8.68939 5.28593 7.87845 5.28593 6.8847C5.28593 5.89095 6.09218 5.08002 7.09061 5.08002C8.08436 5.08002 8.8953 5.89095 8.8953 6.8847C8.8953 7.88314 8.08905 8.68939 7.09061 8.68939ZM20.314 20.08H17.2015V15.205C17.2015 14.0425 17.1781 12.5472 15.5844 12.5472C13.9625 12.5472 13.7141 13.8128 13.7141 15.1206V20.08H10.6016V10.0581H13.5875V11.4269H13.6297C14.0469 10.6394 15.0641 9.8097 16.5781 9.8097C19.7281 9.8097 20.314 11.8863 20.314 14.5863V20.08Z" fill="#1D1D1B"/>
</svg>
